<?xml version="1.0" standalone="no"?>
<!DOCTYPE svg PUBLIC "-//W3C//DTD SVG 20010904//EN"
 "http://www.w3.org/TR/2001/REC-SVG-20010904/DTD/svg10.dtd">
<svg version="1.0" xmlns="http://www.w3.org/2000/svg"
 width="384.000000pt" height="384.000000pt" viewBox="0 0 384.000000 384.000000"
 preserveAspectRatio="xMidYMid meet">
<metadata>
Created by potrace 1.14, written by Peter Selinger 2001-2017
</metadata>
<g transform="translate(0.000000,384.000000) scale(0.100000,-0.100000)"
fill="#000000" stroke="none">
<path d="M1788 3315 l-87 -45 -138 -4 c-76 -2 -147 -6 -158 -9 -118 -29 -210
-60 -280 -95 -133 -66 -288 -202 -377 -330 -39 -56 -54 -69 -133 -110 -60 -32
-97 -59 -112 -81 l-23 -34 0 -679 c0 -718 0 -720 46 -759 16 -13 615 -319
1211 -618 179 -90 189 -90 333 -18 578 291 692 348 695 345 2 -2 74 -72 159
-155 124 -122 160 -153 182 -153 21 0 45 17 96 68 96 97 97 96 -57 250 l-125
126 138 69 c75 38 151 82 167 98 l30 29 0 704 c0 697 0 705 -21 732 -11 16
-34 35 -50 44 -28 16 -891 453 -1174 596 -177 89 -202 91 -322 29z m-238 -116
c0 -11 -31 -20 -42 -12 -6 3 -8 1 -5 -4 9 -14 -18 -24 -38 -16 -10 3 -15 0
-13 -8 2 -8 -4 -13 -14 -13 -10 1 -16 -2 -13 -6 6 -10 -23 -22 -35 -15 -4 3
-10 -2 -13 -9 -4 -9 -19 -14 -37 -14 -16 1 -34 -3 -38 -7 -4 -4 3 -5 16 -2 12
3 22 1 22 -3 0 -5 -13 -11 -30 -15 -16 -4 -32 -11 -35 -16 -4 -5 -15 -9 -26
-9 -10 0 -19 -4 -19 -10 0 -5 -7 -10 -15 -10 -19 0 -20 16 -1 23 12 5 17 45 6
49 -3 1 -14 -3 -25 -10 -11 -6 -15 -12 -10 -12 6 0 16 5 22 11 9 9 12 7 10 -9
0 -12 -7 -24 -15 -27 -8 -3 -12 -12 -8 -20 3 -8 1 -17 -4 -20 -6 -4 -10 -1
-10 4 0 6 -9 11 -20 11 -11 0 -20 -4 -20 -10 0 -5 7 -7 15 -4 8 4 15 2 15 -2
0 -12 -141 -80 -157 -76 -8 2 -12 -3 -11 -10 2 -6 -1 -12 -7 -13 -5 0 -24 -8
-41 -18 -17 -9 -34 -13 -38 -10 -3 4 -6 1 -6 -7 0 -10 -3 -10 -16 1 -13 11
-15 10 -12 -3 1 -9 1 -16 -2 -16 -3 1 -16 -5 -30 -12 -23 -12 -22 -10 5 16 17
16 36 27 44 26 7 -2 10 1 6 7 -6 10 29 49 84 94 26 21 28 21 28 2 0 -8 -5 -12
-11 -9 -6 3 0 -3 13 -14 14 -11 31 -18 39 -15 11 5 11 7 0 15 -10 7 -8 8 5 4
11 -3 16 -2 12 4 -4 6 -12 10 -18 9 -25 -3 -33 2 -34 20 -1 13 3 18 13 14 7
-3 11 -9 8 -14 -10 -16 20 -5 33 13 7 9 21 15 30 14 10 -2 12 -1 6 1 -7 3 -13
9 -13 15 0 6 -9 0 -19 -13 -17 -20 -22 -22 -33 -10 -9 10 -9 12 0 7 7 -5 12
-1 12 10 0 10 3 14 6 11 4 -3 18 2 32 13 13 11 28 18 32 15 4 -3 10 2 14 10 3
8 11 15 18 15 9 0 8 -3 -2 -10 -9 -6 -10 -10 -3 -10 7 0 16 7 21 16 5 9 13 16
18 17 5 0 27 8 49 18 29 13 43 15 53 7 10 -9 12 -8 10 3 -2 9 5 14 19 13 12 0
20 3 18 7 -3 4 4 9 15 12 11 3 20 0 20 -6 0 -9 2 -9 8 -1 4 6 29 14 56 17 27
4 50 8 52 10 6 6 54 3 54 -4z"/>
<path d="M1360 3166 c0 -2 8 -10 18 -17 15 -13 16 -12 3 4 -13 16 -21 21 -21
13z"/>
<path d="M1233 3117 c-3 -6 -1 -7 5 -3 5 3 12 1 14 -6 3 -8 6 -7 10 3 7 17
-19 22 -29 6z"/>
<path d="M1300 3120 c-8 -5 -10 -10 -5 -10 6 0 17 5 25 10 8 5 11 10 5 10 -5
0 -17 -5 -25 -10z"/>
<path d="M1270 3100 c0 -5 5 -10 11 -10 5 0 7 5 4 10 -3 6 -8 10 -11 10 -2 0
-4 -4 -4 -10z"/>
<path d="M1241 3074 c0 -11 3 -14 6 -6 3 7 2 16 -1 19 -3 4 -6 -2 -5 -13z"/>
<path d="M1110 3058 c0 -4 7 -8 15 -8 8 0 15 4 15 8 0 5 -7 9 -15 9 -8 0 -15
-4 -15 -9z"/>
<path d="M1162 3055 c-7 -8 -9 -15 -4 -15 5 0 15 7 22 15 16 19 -1 19 -18 0z"/>
<path d="M1085 3009 c-8 -12 3 -29 18 -28 9 0 9 2 0 6 -21 8 -14 25 7 18 11
-3 20 -3 20 2 0 12 -38 14 -45 2z"/>
<path d="M973 2967 c-4 -8 -18 -19 -31 -26 -12 -7 -20 -16 -17 -21 3 -4 0 -10
-7 -12 -9 -3 -9 -6 0 -12 7 -4 12 -2 12 4 0 6 4 9 8 6 12 -7 38 12 29 21 -5 4
-12 1 -16 -6 -5 -8 -11 -9 -15 -3 -9 14 22 24 43 13 14 -8 17 -5 16 14 0 30
-11 41 -22 22z m8 -20 c-10 -9 -11 -8 -5 6 3 10 9 15 12 12 3 -3 0 -11 -7 -18z"/>
</g>
</svg>
