<svg version="1.1" id="Layer_1" xmlns:x="ns_extend;" xmlns:i="ns_ai;" xmlns:graph="ns_graphs;" xmlns="http://www.w3.org/2000/svg" xmlns:xlink="http://www.w3.org/1999/xlink" x="0px" y="0px" viewBox="0 0 498 128.9" style="enable-background:new 0 0 498 128.9;" xml:space="preserve">
 <style type="text/css">
  .st0{clip-path:url(#SVGID_2_);}
	.st1{fill:#2A3375;}
	.st2{clip-path:url(#SVGID_4_);}
	.st3{clip-path:url(#SVGID_6_);}
	.st4{clip-path:url(#SVGID_8_);}
	.st5{clip-path:url(#SVGID_10_);}
	.st6{clip-path:url(#SVGID_12_);}
	.st7{clip-path:url(#SVGID_14_);}
	.st8{clip-path:url(#SVGID_16_);}
	.st9{clip-path:url(#SVGID_18_);}
	.st10{clip-path:url(#SVGID_20_);}
	.st11{clip-path:url(#SVGID_22_);}
	.st12{clip-path:url(#SVGID_24_);}
	.st13{clip-path:url(#SVGID_26_);}
	.st14{fill:#FDD100;}
	.st15{clip-path:url(#SVGID_28_);}
	.st16{fill:#FFFFFF;}
	.st17{clip-path:url(#SVGID_30_);}
 </style>
 <metadata>
  <sfw xmlns="ns_sfw;">
   <slices>
   </slices>
   <sliceSourceBounds bottomLeftOrigin="true" height="155.9" width="525" x="78" y="180.1">
   </sliceSourceBounds>
  </sfw>
 </metadata>
 <g>
  <g>
   <g>
    <defs>
     <path id="SVGID_1_" d="M469.8,49c-1.6-2.1-2.5-5.2-2.5-9.1s0.8-7,2.5-9.1c3.3-3.9,9.1-4.3,13-1c0.4,0.3,0.7,0.7,1,1
					c1.6,2.1,2.4,5.2,2.4,9.1s-0.8,7-2.4,9.1c-3.3,3.9-9.1,4.3-13,1C470.4,49.7,470.1,49.4,469.8,49 M461.6,25.1
					c-6.7,8.7-6.7,20.8,0,29.6c3.3,4.1,8.4,6.2,15.2,6.2s11.9-2,15.2-6.2c6.7-8.7,6.7-20.8,0-29.6c-3.3-4.2-8.4-6.3-15.2-6.2
					S464.9,21,461.6,25.1">
     </path>
    </defs>
    <clipPath id="SVGID_2_">
     <use href="#SVGID_1_" style="overflow:visible;">
     </use>
    </clipPath>
    <g class="st0">
     <rect x="441.6" y="3.9" class="st1" width="70.4" height="71.9">
     </rect>
    </g>
   </g>
  </g>
  <g>
   <g>
    <defs>
     <path id="SVGID_3_" d="M390.3,52c-1.1-1-1.6-2.4-1.5-3.8c-0.1-1.8,0.8-3.5,2.4-4.4c1.5-0.7,3.1-1.2,4.7-1.4l2.3-0.4
					c0.9-0.2,1.8-0.4,2.7-0.7c0.7-0.3,1.4-0.6,2-1v3.9c-0.1,3.5-1,5.9-2.9,7.2c-1.8,1.3-3.9,2-6.1,2C392.6,53.3,391.4,52.9,390.3,52
					 M382.8,24.1c-1.8,2.5-2.8,5.5-2.9,8.6h9.8c0.2-1.3,0.7-2.6,1.5-3.6c1-1.2,2.7-1.8,5.2-1.8c1.7-0.1,3.4,0.2,5,0.9
					c1.2,0.7,1.8,2,1.7,3.4c0,1.4-0.9,2.6-2.2,3c-1.3,0.5-2.7,0.8-4.1,0.9l-3.5,0.4c-3.1,0.3-6.2,1.1-9,2.6
					c-3.7,2.2-5.6,5.7-5.6,10.6c0,3.8,1.1,6.7,3.5,8.7s5.2,2.9,8.8,3.1c22.2,1,22-11.9,22.2-14.6v-15c0-4.8-1.7-8-5-9.8
					c-3.5-1.8-7.5-2.7-11.4-2.6C390.2,18.9,385.5,20.6,382.8,24.1">
     </path>
    </defs>
    <clipPath id="SVGID_4_">
     <use xlink:href="#SVGID_3_" style="overflow:visible;">
     </use>
    </clipPath>
    <g class="st2">
     <rect x="363.7" y="3.9" class="st1" width="64.4" height="71.9">
     </rect>
    </g>
   </g>
  </g>
  <g>
   <g>
    <defs>
     <path id="SVGID_5_" d="M343.3,24.5c-3.4,3.8-5.1,9.1-5.1,15.9c0,6,1.5,10.9,4.6,14.7s7.9,5.7,14.4,5.7s11.5-2.3,14.8-6.8
					c2-2.6,3.2-5.7,3.5-9h-10.8c-0.1,1.8-0.8,3.6-1.9,5.1c-1,1.3-2.8,2-5.3,2c-3.2,0.2-6.2-1.9-7.2-4.9c-0.8-2.2-1.1-4.6-1-7
					c-0.1-2.5,0.3-5,1-7.3c1.3-3.5,3.8-5.2,7.4-5.2c2.1-0.2,4.2,0.7,5.6,2.4c0.8,1.2,1.3,2.6,1.5,4h10.9c-0.6-5.7-2.5-9.6-5.8-11.8
					s-7.4-3.3-12.5-3.3C351.4,18.9,346.7,20.7,343.3,24.5">
     </path>
    </defs>
    <clipPath id="SVGID_6_">
     <use xlink:href="#SVGID_5_" style="overflow:visible;">
     </use>
    </clipPath>
    <g class="st3">
     <rect x="323.2" y="3.9" class="st1" width="67.4" height="71.9">
     </rect>
    </g>
   </g>
  </g>
  <g>
   <g>
    <defs>
     <path id="SVGID_7_" d="M314.2,38.9v20.4h10.2V40.2c0-3.1,0.4-5.4,1.2-6.9c1.4-2.7,4.1-4,8.2-4c0.3,0,0.7,0,1.2,0
					s1.1,0.1,1.7,0.1V18.9h-0.9h-0.5C312.9,18.9,314.3,39,314.2,38.9">
     </path>
    </defs>
    <clipPath id="SVGID_8_">
     <use xlink:href="#SVGID_7_" style="overflow:visible;">
     </use>
    </clipPath>
    <g class="st4">
     <rect x="299.2" y="3.9" class="st1" width="52.4" height="70.4">
     </rect>
    </g>
   </g>
  </g>
  <g>
   <g>
    <defs>
     <path id="SVGID_9_" d="M284.1,29.7c1.6-1.6,3.9-2.4,6.1-2.3c2.2-0.1,4.4,0.7,6.1,2.1c1.7,1.6,2.7,3.9,2.7,6.3h-17.7
					C281.6,33.5,282.6,31.4,284.1,29.7 M276.2,24.4c-3.6,3.7-5.4,8.9-5.4,15.8c0,7.3,2,12.6,6,15.8c3.9,3.2,8.8,4.9,13.8,4.9
					c6.3,0,11.3-1.9,14.8-5.8c1.7-1.7,2.9-3.7,3.6-6h-11c-0.4,0.6-0.9,1.1-1.4,1.6c-1.5,1.2-3.5,1.6-5.8,1.6
					c-1.9,0.1-3.8-0.3-5.5-1.3c-2.6-1.6-4-4.3-4.2-8.3h28.6c0.1-2.6,0-5.2-0.3-7.9c-0.4-2.9-1.5-5.7-3.1-8.2c-1.7-2.6-4-4.6-6.8-5.9
					c-2.9-1.3-6-1.9-9.2-1.9C284.5,18.9,279.8,20.7,276.2,24.4">
     </path>
    </defs>
    <clipPath id="SVGID_10_">
     <use xlink:href="#SVGID_9_" style="overflow:visible;">
     </use>
    </clipPath>
    <g class="st5">
     <rect x="255.8" y="3.9" class="st1" width="68.9" height="71.9">
     </rect>
    </g>
   </g>
  </g>
  <g>
   <g>
    <defs>
     <path id="SVGID_11_" d="M238.7,24.3c-2.8-3.5-7-5.5-11.5-5.4c-9.9,0-16.3,7.4-16.3,17.1v23.4h9.3V35.8c0-4.3,2.9-7.3,7-7.3
					c6.1,0,6.7,5.1,6.7,7.3v23.6h9.3V35.8c0-4.3,3-7.3,7-7.3c6.1,0,6.8,5.1,6.8,7.3v23.6h9.3V35.9c0-10-6-17.1-16.1-17.1
					C245.7,18.8,241.4,20.8,238.7,24.3">
     </path>
    </defs>
    <clipPath id="SVGID_12_">
     <use xlink:href="#SVGID_11_" style="overflow:visible;">
     </use>
    </clipPath>
    <g class="st6">
     <rect x="195.9" y="3.9" class="st1" width="85.4" height="70.4">
     </rect>
    </g>
   </g>
  </g>
  <g>
   <g>
    <defs>
     <path id="SVGID_13_" d="M430.1,49.1c-1.5-2.7-2.3-5.9-2.1-9c-0.1-3,0.6-5.9,2.1-8.4c1.3-2.3,3.8-3.6,6.5-3.4
					c1.9,0,3.7,0.6,5.1,1.9c2.4,2.1,3.6,5.8,3.6,10.6c0.1,3-0.7,5.9-2.2,8.4c-1.4,2.1-3.9,3.4-6.5,3.2
					C433.9,52.5,431.4,51.3,430.1,49.1 M444.9,14.1v11.1c-1.1-1.8-2.6-3.3-4.4-4.3c-1.9-1.1-4-1.6-6.2-1.6c-4.7-0.1-9.2,2-12.1,5.8
					c-3,3.9-4.5,9.4-4.5,16.1c0,5.8,1.5,10.6,4.6,14.3s9.1,5.3,14.4,5.3c18.6,0,18.4-16.3,18.4-16.3V6.9c0,0-0.5-0.1-1.2-0.1
					C451.2,6.9,444.9,7.6,444.9,14.1">
     </path>
    </defs>
    <clipPath id="SVGID_14_">
     <use xlink:href="#SVGID_13_" style="overflow:visible;">
     </use>
    </clipPath>
    <g class="st7">
     <rect x="402.6" y="-8.1" class="st1" width="67.4" height="83.9">
     </rect>
    </g>
   </g>
  </g>
  <g>
   <g>
    <defs>
     <path id="SVGID_15_" d="M323.1,90.7c1.7-1.5,3.9-2.3,6.1-2.2c2.2-0.1,4.4,0.7,6.1,2.1c1.7,1.5,2.7,3.7,2.7,6h-17.7
					C320.6,94.4,321.5,92.3,323.1,90.7 M315.1,85.6c-3.6,3.5-5.4,8.6-5.4,15.2c0,7,2,12.1,6,15.3c3.9,3.1,8.8,4.8,13.8,4.7
					c6.3,0,11.2-1.9,14.8-5.6c1.7-1.6,2.9-3.6,3.6-5.8h-11c-0.4,0.6-0.9,1.1-1.4,1.6c-1.7,1.2-3.8,1.7-5.9,1.6
					c-1.9,0.1-3.8-0.3-5.5-1.3c-2.6-1.5-3.9-4.2-4.1-8h28.6c0.1-2.5,0-5.1-0.4-7.6c-0.4-2.8-1.5-5.5-3.1-7.9c-1.7-2.5-4-4.4-6.8-5.6
					c-2.9-1.2-6.1-1.8-9.2-1.8C323.4,80.3,318.7,82.1,315.1,85.6">
     </path>
    </defs>
    <clipPath id="SVGID_16_">
     <use xlink:href="#SVGID_15_" style="overflow:visible;">
     </use>
    </clipPath>
    <g class="st8">
     <rect x="294.7" y="65.3" class="st1" width="68.9" height="70.4">
     </rect>
    </g>
   </g>
  </g>
  <g>
   <g>
    <defs>
     <path id="SVGID_17_" d="M257.4,109.1c-1.6-2.5-2.4-5.4-2.2-8.4c0-4.8,1.2-8.2,3.6-10.3c1.4-1.2,3.2-1.9,5.1-1.9
					c2.6-0.2,5.1,1.1,6.5,3.4c1.5,2.6,2.2,5.5,2.1,8.5c0.1,3-0.6,6.1-2.1,8.7c-1.4,2.2-3.8,3.4-6.4,3.2
					C261.4,112.5,258.9,111.2,257.4,109.1 M245.3,74.3v30.1c0,0-0.2,16.3,18.4,16.3c5.3,0,11.4-1.6,14.4-5.3
					c3.1-3.7,4.6-8.5,4.6-14.3c0-6.7-1.5-12-4.5-15.8c-2.9-3.8-7.4-5.9-12.1-5.8c-2.2,0-4.3,0.5-6.2,1.6c-1.8,1.1-3.3,2.6-4.4,4.4
					V66.9c-0.3,0-0.7,0-1,0C251.9,66.9,245.3,67.5,245.3,74.3">
     </path>
    </defs>
    <clipPath id="SVGID_18_">
     <use xlink:href="#SVGID_17_" style="overflow:visible;">
     </use>
    </clipPath>
    <g class="st9">
     <rect x="230.3" y="51.8" class="st1" width="67.4" height="83.9">
     </rect>
    </g>
   </g>
  </g>
  <g>
   <g>
    <defs>
     <path id="SVGID_19_" d="M285.8,99v20.2H296v-19c0-3.2,0.4-5.5,1.2-7c1.4-2.7,4.1-4,8.2-4c0.3,0,0.7,0,1.2,0s1.1,0.1,1.7,0.1
					V78.9l-0.9-0.1h-0.5C284.5,78.8,285.8,99.1,285.8,99">
     </path>
    </defs>
    <clipPath id="SVGID_20_">
     <use xlink:href="#SVGID_19_" style="overflow:visible;">
     </use>
    </clipPath>
    <g class="st10">
     <rect x="270.8" y="63.8" class="st1" width="52.4" height="70.4">
     </rect>
    </g>
   </g>
  </g>
  <g>
   <g>
    <defs>
     <path id="SVGID_21_" d="M210.9,74.2v45.1h9V66.9h-0.2C218.3,66.8,210.9,67.1,210.9,74.2">
     </path>
    </defs>
    <clipPath id="SVGID_22_">
     <use xlink:href="#SVGID_21_" style="overflow:visible;">
     </use>
    </clipPath>
    <g class="st11">
     <rect x="195.9" y="51.8" class="st1" width="38.9" height="82.4">
     </rect>
    </g>
   </g>
  </g>
  <rect x="227.3" y="66.8" class="st1" width="10.5" height="10.5">
  </rect>
  <rect x="227.3" y="80.3" class="st1" width="10.5" height="39">
  </rect>
  <g>
   <g>
    <defs>
     <path id="SVGID_23_" d="M92.5,0.9C42.4,1,1.9,27.9,2.1,60.7v3.5c0.1,34.8,35.6,62.9,90.8,62.6c55.5-0.1,90.5-28.5,90.5-63.2
					c-0.1-1.2,0-1.9,0-3.5c-0.2-32.6-40.6-59.2-90.5-59.2L92.5,0.9L92.5,0.9z">
     </path>
    </defs>
    <clipPath id="SVGID_24_">
     <use xlink:href="#SVGID_23_" style="overflow:visible;">
     </use>
    </clipPath>
    <g class="st12">
     <rect x="-13" y="-14" class="st1" width="211.3" height="155.9">
     </rect>
    </g>
   </g>
  </g>
  <g>
   <g>
    <defs>
     <path id="SVGID_25_" d="M92.5,4.1C44.8,4.2,6.2,29.6,6.3,60.8s38.8,56.4,86.5,56.2s86.3-25.5,86.2-56.7S140.4,4.1,92.9,4.1
					L92.5,4.1L92.5,4.1z">
     </path>
    </defs>
    <clipPath id="SVGID_26_">
     <use xlink:href="#SVGID_25_" style="overflow:visible;">
     </use>
    </clipPath>
    <g class="st13">
     <rect x="-8.7" y="-10.9" class="st14" width="202.7" height="142.9">
     </rect>
    </g>
   </g>
  </g>
  <g>
   <g>
    <defs>
     <path id="SVGID_27_" d="M51.4,67c-3.4,0.1-6,3-5.9,6.4c0.1,3.2,2.7,5.7,5.9,5.9c1.6,0,3.1-0.7,4.2-1.8c0.1,0,0.1,0.1,0,0.2l0,0
					c-0.3,1.5-0.7,7,5,9.2c2,0.8,4.3,0.4,5.9-1c0.5-0.4,0.6-0.2,0.5,0.3c-0.2,1.4,0.1,4.5,4.3,6.1c2.2,1,4.8,0.5,6.4-1.2
					c0.6-0.5,0.7-0.4,0.8,0.4c0.1,4.2,3.6,7.5,7.8,7.4s7.5-3.6,7.4-7.8l0,0c-0.1-4.2-3.5-7.6-7.7-7.6c-1.7,0-3.6,1-3.9,0.9
					c0-0.4,0.1-0.8,0.3-1.2c0.2-0.4,2.4-7.3-3.1-9.6c-4.3-1.8-6.9,0.3-7.7,1.1c-0.3,0.3-0.4,0.2-0.4-0.1c-0.1-2.6-1.8-4.9-4.3-5.7
					c-3.6-1.1-7.4,0.3-9.5,3.4c-0.3-3-2.9-5.3-5.9-5.3L51.4,67L51.4,67z M6.1,53.8c1.6,0.5,4.1,1.2,5.2,1.4
					c24.8,5.5,32.6,11.1,33.9,12.3c1.5-1.8,3.8-2.8,6.1-2.8c2.7,0,5.2,1.3,6.7,3.5c1.7-1.4,3.8-2.1,5.9-2.1c1.2,0,2.4,0.2,3.6,0.6
					c2.3,0.6,4.1,2.3,5,4.5c1.1-0.5,2.3-0.7,3.5-0.7c1.4,0,2.8,0.3,4.1,0.9c4.6,1.9,5.3,6.5,4.9,9.9c0.3,0,0.6,0,0.9,0
					c5.4,0,9.8,4.4,9.8,9.8c0,1.6-0.4,3.2-1.2,4.7c1.5,0.8,5.2,2.7,8.5,2.3c2.6-0.3,3.7-1.3,4-1.8s0.5-0.8,0.3-1l-7-7.8
					c0,0-1.1-1.1-0.8-1.5c0.4-0.4,1.1,0.2,1.6,0.6c3.5,3,7.9,7.5,7.9,7.5s0.4,0.7,2,0.9c1.9,0.3,3.9-0.1,5.6-1.3
					c0.4-0.4,0.9-0.8,1.2-1.2l-0.1,0.1c1.8-2.3-0.2-4.6-0.2-4.6l-8.2-9.2c0,0-1.1-1.1-0.8-1.5c0.4-0.4,1.1,0.2,1.6,0.6
					c2.6,2.1,6.3,5.8,9.7,9.2c0.7,0.5,3.8,2.4,7.8-0.3c2.4-1.6,3-3.6,2.9-5.2c-0.2-1.3-0.8-2.5-1.7-3.4L117.6,67c0,0-1.1-1-0.8-1.5
					c0.4-0.5,1.1,0.2,1.6,0.6c3.5,3,13.2,11.8,13.2,11.8c2.3,1.5,5.3,1.4,7.6-0.2c1.4-0.8,2.4-2.3,2.5-4s-0.6-3.4-1.9-4.6
					c-0.3-0.3-28.3-24.7-34.6-29.5c-3.7-2.7-5.7-3.4-7.9-3.7c-1.3-0.1-2.5,0-3.8,0.3c-2.9,0.8-6.8,3.4-10.2,6.1
					c-3.6,2.9-6.8,5.5-9.9,6.2c-4,0.9-8.8-0.2-11-1.7c-0.8-0.5-1.4-1.2-1.8-2c-0.8-1.9,0.7-3.4,0.9-3.7l7.7-8.4
					c0.9-0.9,1.8-1.8,2.7-2.7c-2.4,0.4-4.7,0.9-7,1.6c-2.6,0.9-5.4,1.4-8.2,1.5c-2.8-0.3-5.6-0.7-8.4-1.3c-7.7-2-15.1-4.6-22.3-7.9
					C15.4,32.2,8.1,42.5,6.1,53.8 M96,22.5c-13.1,0.4-18.8,6-24.7,12.1l-7.6,8.3c0,0.1-0.9,1-0.4,1.7c1.3,1.8,5.6,2.8,9.9,1.8
					c2.5-0.6,5.8-3.2,9-5.8c3.5-2.8,6.8-5.5,10.3-6.6c2.4-0.9,5.1-1,7.5-0.2c2.5,0.9,4.8,2.3,6.8,4c6,4.5,30,25.5,34.2,29
					c12.3-5.4,25.2-9.6,38.3-12.5c-1.8-10.8-8.4-20.6-18.3-28.6c-13.8,5.9-30.7,9-47.2,0.9c-0.1,0-8.6-4-17.2-4L96,22.5">
     </path>
    </defs>
    <clipPath id="SVGID_28_">
     <use xlink:href="#SVGID_27_" style="overflow:visible;">
     </use>
    </clipPath>
    <g class="st15">
     <rect x="-8.9" y="7.5" class="st16" width="203.2" height="106.3">
     </rect>
    </g>
   </g>
  </g>
  <g>
   <g>
    <defs>
     <path id="SVGID_29_" d="M46,73.4c-0.1-3,2.3-5.6,5.3-5.6c2.9-0.1,5.3,2.1,5.6,4.9l0.2,1.5l0.8-1.2c1.5-2.2,3.9-3.5,6.5-3.6
					c0.8,0,1.6,0.1,2.4,0.3c2.3,0.7,3.8,2.8,3.9,5.2c0.1,0.8,0.6,0.8,0.7,0.8c0.2,0,0.5-0.1,0.7-0.3c1-1.1,2.5-1.7,4-1.8
					c1,0,2.1,0.3,3,0.7c5.2,2.2,2.9,8.9,2.9,9c-0.5,1.1-0.5,1.6-0.1,1.9l0.2,0.1h0.2c0.3-0.1,0.7-0.2,1-0.3c0.9-0.4,1.9-0.6,2.8-0.6
					c3.9,0,7,3.1,7,7s-3.1,7-7,7c-3.8,0-7-3-7.2-6.8c0-0.3,0-1.2-0.8-1.2c-0.3,0-0.6,0.2-0.8,0.5c-0.9,1-2.1,1.6-3.5,1.6
					c-0.8,0-1.6-0.2-2.3-0.5c-4.1-1.7-4.1-4.4-3.9-5.5c0.1-0.3,0.1-0.6-0.1-0.8l-0.3-0.2H67c-0.2,0-0.5,0.1-0.6,0.3
					c-1,0.8-2.2,1.3-3.5,1.3c-0.6,0-1.3-0.1-1.9-0.4c-5.3-2.1-4.9-7.1-4.6-8.7c0-0.3,0-0.6-0.2-0.7L55.8,77l-0.4,0.4
					c-1,1-2.4,1.6-3.8,1.5l0,0C48.5,78.8,46.1,76.4,46,73.4 M96.8,19.6H96c-10.9,0.3-17,4.2-21.1,7.5c-3.6,0.2-7.1,0.9-10.5,1.9
					c-2.4,0.8-4.9,1.3-7.4,1.4c-0.5,0-1.2,0-1.8,0h-1.1c-2.6-0.1-16-3.3-26.6-7.3c-1.1,0.8-2.2,1.6-3.2,2.4
					c11.1,4.5,24.7,8,28.9,8.2l3.7,0.2c2.9-0.2,5.7-0.7,8.4-1.6c1.7-0.5,3.5-1,5.3-1.3c-0.5,0.5-1,1-1.5,1.5l-7.7,8.3
					c-0.6,0.6-2,2.3-1.1,4.3c0.5,0.9,1.1,1.7,2,2.2c2.5,1.4,5.3,2.1,8.2,2.1c1.1,0,2.2-0.1,3.3-0.3c3.2-0.7,6.6-3.5,10.2-6.3
					c2.8-2.3,6.9-5.2,10-6.1c0.9-0.2,1.9-0.4,2.8-0.4c0.3,0,0.5,0,0.8,0.1c2.1,0.3,4.1,1,7.6,3.6c6.3,4.8,34.4,29.2,34.6,29.4
					c1.1,1.1,1.7,2.6,1.7,4.1c-0.1,1.5-0.9,2.8-2.2,3.6c-1.1,0.7-2.4,1.1-3.7,1.2c-1.1,0-2.3-0.3-3.2-0.9
					c-0.1-0.1-9.7-8.9-13.3-11.8c-0.5-0.4-1-0.7-1.6-0.9c-0.3,0-0.6,0.1-0.8,0.4c-0.6,0.7,0.1,1.6,0.8,2.3l11.2,11.2
					c0.8,0.8,1.4,1.9,1.6,3c0.1,1.9-0.8,3.4-2.7,4.7c-1.2,0.9-2.6,1.3-4,1.3c-1.1,0-2.3-0.4-3.2-1l-1.6-1.6c-3-2.9-6-5.9-8.2-7.8
					c-0.5-0.5-1.1-0.8-1.7-0.8c-0.3,0-0.5,0.1-0.7,0.3c-0.3,0.3-0.5,0.8,0.2,1.6c0.2,0.2,0.4,0.5,0.6,0.7l8.2,9.2
					c1,1.1,1.1,2.7,0.2,3.9l-0.3,0.4l-0.7,0.8c-1.2,0.9-2.6,1.3-4,1.3c-0.4,0-0.8,0-1.1-0.1c-0.6-0.1-1.1-0.3-1.6-0.6l-0.1-0.1
					c-0.5-0.5-4.6-4.7-8-7.5c-0.4-0.4-1-0.7-1.6-0.8c-0.3,0-0.6,0.1-0.8,0.3c-0.7,0.8,0.3,1.9,0.8,2.3l7,7.7c0,0.1-0.1,0.2-0.3,0.5
					s-1.1,1.1-3.6,1.6c-0.3,0-0.7,0.1-1,0.1c-2.4-0.1-4.7-0.8-6.8-2c0.7-1.4,1-2.9,1-4.5c0-5.7-4.5-10.3-10.2-10.4H86h-0.4
					c0.2-2.6-0.2-7.6-5.3-9.8c-1.4-0.6-2.9-0.9-4.4-1c-1.1,0-2.2,0.2-3.2,0.6c-1-2.1-2.9-3.6-5.1-4.3c-1.2-0.4-2.4-0.6-3.7-0.6
					c-2.1,0-4.1,0.7-5.8,1.9c-1.7-2.1-4.2-3.3-6.8-3.3c-2.3,0-4.6,1-6.2,2.6c-2.2-1.7-10.8-7.1-33.9-12.3c-1.1-0.3-3.7-1-5.2-1.4
					c-0.3,1.2-0.4,2.5-0.6,3.8c0,0,4.3,1,5.1,1.2c23.6,5.2,31.3,10.6,32.6,11.6c-0.4,1.1-0.7,2.2-0.7,3.4c0.1,5,4.2,8.9,9.2,8.8
					c0.4,0,0.8,0,1.2-0.1c0.7,3.6,3.3,6.5,6.7,7.7c1,0.4,2.1,0.6,3.1,0.6c0.7,0,1.3-0.1,2-0.2c1,2.4,3,4.3,5.4,5.1
					c1.1,0.5,2.3,0.7,3.5,0.7c0.9,0,1.9-0.2,2.7-0.5c1.6,3.9,5.4,6.4,9.6,6.4c2.8,0,5.5-1.2,7.4-3.2c2.7,1.5,5.7,2.4,8.8,2.6
					c0.4,0,0.9,0,1.3-0.1c3.6-0.4,5.2-1.9,5.9-2.9c0.1-0.2,0.3-0.4,0.4-0.6c0.9,0.3,1.9,0.5,2.8,0.4c2.1-0.1,4-0.8,5.6-2.1
					c1.7-1.1,2.9-2.9,3.3-4.9v-0.1c0.6,0.1,1.2,0.2,1.9,0.2c2.1,0,4.1-0.7,5.8-1.9c3.7-2.4,4.3-5.5,4.2-7.5c0.6,0.1,1.3,0.2,1.9,0.2
					c1.9-0.1,3.8-0.6,5.5-1.7c2.2-1.4,3.6-3.7,3.8-6.2c0.1-1.7-0.3-3.5-1.2-5c11.8-4.8,23.9-8.7,36.2-11.5c-0.1-1.2-0.3-2.6-0.5-3.8
					c-13,2.9-25.7,7-37.8,12.4c-8.6-7.5-28.6-24.8-34-28.8c-2.1-1.8-4.4-3.1-7-4.1c-1.1-0.4-2.2-0.5-3.4-0.5c-1.5,0-2.9,0.3-4.3,0.7
					c-3.5,1.1-7,3.9-10.3,6.6l-0.2,0.1c-3.1,2.5-6.4,5.1-8.8,5.6c-1.1,0.2-2.2,0.4-3.3,0.4c-2.7,0-5.2-0.8-6.2-1.9
					c-0.2-0.2-0.1-0.5,0.3-1l0.1-0.1l7.6-8.2c5.9-5.9,11.5-11.6,24.4-11.9h0.7c8,0,16.1,3.6,17,3.9c7.2,3.6,15.1,5.5,23.1,5.5
					c8.1,0,16.5-2.1,25.4-6.2c-1-0.8-2-1.7-3.1-2.4c-7,3.2-14.6,5-22.3,5.1c-7.5-0.1-14.9-1.8-21.7-5.1c-0.4-0.2-9.2-4.3-18.4-4.3
					L96.8,19.6z">
     </path>
    </defs>
    <clipPath id="SVGID_30_">
     <use xlink:href="#SVGID_29_" style="overflow:visible;">
     </use>
    </clipPath>
    <g class="st17">
     <rect x="-9.5" y="4.6" class="st1" width="204.3" height="112.2">
     </rect>
    </g>
   </g>
  </g>
 </g>
</svg>