<?xml version="1.0" encoding="UTF-8" standalone="no"?>
<svg
   shape-rendering="geometricPrecision"
   text-rendering="geometricPrecision"
   image-rendering="optimizeQuality"
   fill-rule="evenodd"
   clip-rule="evenodd"
   viewBox="0 0 64 46.079224"
   version="1.1"
   id="svg12"
   width="64"
   height="46.079224"
   xmlns="http://www.w3.org/2000/svg"
   xmlns:svg="http://www.w3.org/2000/svg">
  <defs
     id="defs16" />
  <g
     id="g1840"
     transform="matrix(0.10865229,0,0,0.10865229,-211.7038,-90.165739)">
    <g
       id="g1947"
       transform="translate(1958.8995,720.25112)">
      <path
         style="mix-blend-mode:normal;fill:#694e4e;fill-opacity:1;fill-rule:nonzero;stroke-width:0;stroke-dasharray:none"
         d="M 72.412423,494.74974 C 69.367121,486.45446 54.203301,445.4963 38.715061,403.73158 23.226821,361.96687 10.586138,327.71156 10.624654,327.60866 c 0.03848,-0.1029 59.25765,-22.13184 131.598076,-48.95319 72.34041,-26.82136 131.73483,-48.86656 131.9876,-48.98933 0.46995,-0.2283 67.55469,30.38276 67.37578,30.74384 -0.0543,0.10958 -2.30094,2.54485 -4.99258,5.41179 -2.69163,2.86694 -8.52786,9.44005 -12.9694,14.60691 -8.84969,10.29492 -9.17505,10.63143 -12.97414,13.41849 -7.71671,5.66111 -11.73445,16.21055 -9.69369,25.45297 0.74705,3.38334 3.62076,9.25409 5.80049,11.84994 6.21461,7.40097 17.57234,10.54249 27.15421,7.51081 6.86627,-2.1725 13.24964,-8.0497 15.99407,-14.72587 1.65558,-4.02741 2.30383,-9.83747 1.53513,-13.75872 -0.98848,-5.04231 -4.19118,-11.08617 -7.65458,-14.445 -1.45548,-1.41155 -2.62688,-2.62856 -2.60312,-2.70448 0.18325,-0.58655 19.49512,-21.57695 20.8393,-22.651 0.4475,-0.35758 6.11267,1.98326 18.23127,7.53408 9.67011,4.42907 17.59855,8.22006 17.61875,8.42442 0.0201,0.20437 -12.1672,29.44293 -27.0831,64.97461 -26.78209,63.79854 -27.14133,64.61007 -28.84764,65.16669 -0.95031,0.31 -59.52651,22.02245 -130.16936,48.2499 -70.64285,26.22744 -129.251587,47.94948 -130.241636,48.2712 -1.758013,0.57127 -1.820922,0.54111 -2.690421,-1.28987 -0.489608,-1.03117 -3.381934,-8.66184 -6.42724,-16.95711 z"
         id="path1362" />
      <path
         fill-rule="nonzero"
         d="M 353.39327,430.75 77.294352,533.16508 A 8.552,8.552 0 0 1 66.287755,528.11463 L -8.9476937,325.30908 A 8.564,8.564 0 0 1 -3.8930671,314.2934 L 272.20586,211.87832 a 8.51,8.51 45 0 1 6.5588,0.23693 l 76.31902,35.01952 c 57.41726,-55.93036 107.04801,-75.10947 144.25228,-73.44152 35.36232,1.58193 59.98676,21.38596 70.65145,47.10726 10.5966,25.55802 7.19335,56.90489 -13.38046,81.79225 -24.90855,30.13798 -75.22207,50.70917 -156.34304,37.9998 -1.97026,-0.30994 -3.71681,-1.15537 -5.13936,-2.34722 l -36.84149,87.7948 c -0.94906,2.26013 -2.76487,3.89149 -4.89962,4.68334 z m 22.19485,-174.20662 37.61872,17.26162 c 4.30812,1.97682 6.18768,7.06422 4.21504,11.36324 -0.0625,0.13638 -0.1251,0.27268 -0.19254,0.39576 l -14.32612,34.14661 0.64692,0.0768 c 72.4078,11.34087 116.06308,-5.48598 136.78734,-30.55735 15.32729,-18.53677 17.94897,-41.68233 10.18078,-60.40826 -7.70007,-18.56264 -25.84563,-32.89623 -52.14209,-34.07008 -31.11405,-1.39296 -73.02369,14.91458 -122.788,61.79168 z m -24.3209,54.25005 c 0.49964,1.69259 0.59166,3.5062 0.16891,5.31469 -0.21907,2.94717 -0.94798,5.90245 -2.24917,8.73817 -2.92767,6.38037 -8.17041,10.97229 -14.26971,13.23473 -6.09929,2.26245 -13.06838,2.20035 -19.44875,-0.72733 -6.38038,-2.92768 -10.9632,-8.16626 -13.22565,-14.26555 a 25.315,25.315 45 0 1 0.72734,-19.44875 c 2.45641,-5.35332 6.53875,-9.45448 11.39917,-11.9663 9.47326,-11.48573 18.76503,-21.97649 27.8905,-31.55332 L 274.83882,229.18314 10.103139,327.38317 79.368445,514.11425 343.9848,415.95848 398.54708,285.94755 362.49164,269.40325 c -7.17343,7.33684 -14.49561,15.30958 -21.96654,23.91822 4.39287,3.03894 7.61367,7.28946 9.38919,12.07607 0.64014,1.74606 1.09881,3.55189 1.35293,5.39589 z"
         id="path10"
         style="display:inline;fill:#1a1a1a;fill-opacity:1;stroke-width:1;stroke-dasharray:none" />
      <path
         fill-rule="nonzero"
         d="M 275.62868,422.85837 -4.5202332,332.10567 a 8.552,8.552 0 0 1 -5.5073438,-10.78523 l 66.65552,-205.7851 a 8.564,8.564 0 0 1 10.794138,-5.51189 L 347.571,200.77616 a 8.51,8.51 45 0 1 5.00027,4.25103 l 38.18758,74.78415 c 79.72434,-8.3053 130.55988,7.40444 158.72269,31.77237 26.77063,23.15879 33.8206,53.96237 26.24798,80.75746 -7.52489,26.62473 -29.62423,49.11534 -61.19487,55.89452 -38.22667,8.21306 -90.46084,-6.82741 -146.24453,-67.07955 -1.35409,-1.46438 -2.20073,-3.21035 -2.57839,-5.02738 l -83.32658,46.06413 c -2.1456,1.18545 -4.58169,1.34026 -6.74776,0.63858 z m 125.38993,-122.95497 18.8232,36.86217 c 2.15563,4.22147 0.4775,9.37884 -3.73508,11.52992 -0.13359,0.0682 -0.26719,0.13643 -0.39642,0.1912 l -32.40648,17.91781 0.46008,0.46122 c 49.79407,53.77781 94.48237,67.62999 126.28513,60.79964 23.51728,-5.04726 39.92016,-21.58616 45.43018,-41.09629 5.46226,-19.33977 0.10615,-41.83476 -19.80285,-59.05434 -23.55384,-20.37745 -66.55035,-33.55522 -134.65778,-27.61134 z m -52.71002,27.49958 c -0.65697,1.63796 -1.70884,3.11825 -3.16147,4.27547 -1.99855,2.17706 -4.40224,4.04448 -7.18093,5.46339 -6.25205,3.19252 -13.21242,3.54668 -19.40117,1.54187 -6.18875,-2.00484 -11.61937,-6.37296 -14.8119,-12.62501 -3.19253,-6.25205 -3.54214,-13.20351 -1.53732,-19.39227 a 25.315,25.315 45 0 1 12.625,-14.81189 c 5.24567,-2.67864 10.99121,-3.36686 16.36232,-2.32561 14.55306,-3.14211 28.34702,-5.6159 41.44404,-7.47555 L 338.91183,215.98826 70.29285,128.9706 8.915033,318.44076 277.41294,405.41919 400.81146,337.20858 382.77048,301.87825 c -10.17677,1.31165 -20.86442,3.03014 -32.06293,5.15545 1.56385,5.10753 1.45698,10.43941 -0.11636,15.29624 -0.57951,1.7671 -1.33913,3.46843 -2.2826,5.07304 z"
         id="path10-1"
         style="display:inline;fill:#1a1a1a;fill-opacity:1" />
      <path
         style="display:inline;fill:#f3c5c5;fill-opacity:1;stroke-width:0.498452"
         d="m 39.750729,223.75402 30.631574,-94.55504 134.121077,43.4471 134.12106,43.44708 16.71816,32.73981 c 9.195,18.0069 16.60941,32.79536 16.47647,32.86324 -0.13295,0.0679 -5.00776,0.9243 -10.83292,1.90314 -5.82515,0.97885 -14.84965,2.6364 -20.05445,3.68345 -6.3764,1.28273 -10.50703,1.83052 -12.66313,1.67932 -11.63529,-0.81592 -22.50356,6.42329 -26.1106,17.39194 -4.51766,13.73781 2.64277,27.95356 16.32022,32.40078 13.85266,4.50378 28.68209,-3.30101 32.68393,-17.20238 0.82948,-2.88144 1.08177,-8.54154 0.5135,-11.52066 -0.2809,-1.47263 -0.38946,-2.73943 -0.24124,-2.81512 0.53812,-0.27478 12.37047,-2.27375 21.64018,-3.6559 l 9.49145,-1.41521 8.88819,17.40607 8.88818,17.40605 -3.97044,2.36288 c -2.18375,1.29958 -29.86746,16.65094 -61.51936,34.11413 L 277.30365,405.18595 143.21141,361.74751 9.1191587,318.30906 Z"
         id="path946" />
    </g>
  </g>
</svg>
