<?xml version="1.0" encoding="UTF-8" standalone="no"?>
<svg
   height="16"
   viewBox="0 0 8 8.0000001"
   width="16"
   fill="#000000"
   version="1.1"
   id="svg23"
   sodipodi:docname="trending_down_pink_48dp.svg"
   inkscape:version="1.2.1 (9c6d41e410, 2022-07-14)"
   inkscape:export-filename="icon\icon16.svg"
   inkscape:export-xdpi="96"
   inkscape:export-ydpi="96"
   xmlns:inkscape="http://www.inkscape.org/namespaces/inkscape"
   xmlns:sodipodi="http://sodipodi.sourceforge.net/DTD/sodipodi-0.dtd"
   xmlns="http://www.w3.org/2000/svg"
   xmlns:svg="http://www.w3.org/2000/svg">
  <defs
     id="defs27" />
  <sodipodi:namedview
     id="namedview25"
     pagecolor="#ffffff"
     bordercolor="#000000"
     borderopacity="0.25"
     inkscape:showpageshadow="2"
     inkscape:pageopacity="0.0"
     inkscape:pagecheckerboard="0"
     inkscape:deskcolor="#d1d1d1"
     showgrid="false"
     inkscape:zoom="38.958333"
     inkscape:cx="13.899465"
     inkscape:cy="13.142246"
     inkscape:window-width="2465"
     inkscape:window-height="1769"
     inkscape:window-x="2413"
     inkscape:window-y="1332"
     inkscape:window-maximized="0"
     inkscape:current-layer="svg23" />
  <path
     d="M -2.4174999,-6.473382 H 21.5825 v 24 H -2.4174999 Z"
     fill="none"
     id="path19" />
  <path
     d="M 5.1869331,6.5623052 5.662991,6.0929223 4.2753628,2.8150369 3.4676843,4.9837354 c -0.08522,0.2288246 -0.2605696,0.2031831 -0.3601994,0 L 1.5747222,1.8526455 c -0.09963,-0.2031824 -0.09963,-0.5313997 0,-0.7345819 0.09963,-0.20318212 0.6900711,-0.12294623 0.7897007,0.080236 l 0.9218843,2.6809587 0.840465,-1.714024 C 4.2264016,1.9620512 4.2725895,1.9486783 4.3722191,2.1518611 L 6.0330262,5.3130117 6.2828591,4.3220911 C 6.3340699,4.1189672 6.5,4.2752041 6.5,4.5044338 V 6.7394383 C 6.5,6.8853132 6.443809,6.9999282 6.3722698,6.9999282 H 5.2763443 C 5.1639417,7.0051541 5.1077404,6.7238089 5.1869331,6.5623052 Z"
     id="path21"
     sodipodi:nodetypes="sccsccsccsccsssscs"
     style="fill:#f3c5c5;fill-opacity:1;stroke-width:0.364813"
     inkscape:export-filename="icon\icon32@3x.png"
     inkscape:export-xdpi="235.43236"
     inkscape:export-ydpi="235.43236" />
</svg>
